HIERARCHY
ROOT root
{
	OFFSET 0.000000 0.000000 0.000000
	CHANNELS 6 Xposition Yposition Zposition Zrotation Yrotation Xrotation
	JOINT lhip
	{
		OFFSET 0.058581 -0.082280 -0.017664
		CHANNELS 3 Zrotation Yrotation Xrotation
		JOINT lknee
		{
			OFFSET 0.043451 -0.386469 0.008037
			CHANNELS 3 Zrotation Yrotation Xrotation
			JOINT lankle
			{
				OFFSET -0.014790 -0.426874 -0.037428
				CHANNELS 3 Zrotation Yrotation Xrotation
				JOINT ltoe
				{
					OFFSET 0.041054 -0.060286 0.122042
					CHANNELS 3 Zrotation Yrotation Xrotation
					End Site
					{
						OFFSET 0.000000 0.000000 0.000000
					}
				}
			}
		}
	}
	JOINT rhip
	{
		OFFSET -0.060310 -0.090513 -0.013543
		CHANNELS 3 Zrotation Yrotation Xrotation
		JOINT rknee
		{
			OFFSET -0.043257 -0.383688 -0.004843
			CHANNELS 3 Zrotation Yrotation Xrotation
			JOINT rankle
			{
				OFFSET 0.019056 -0.420046 -0.034562
				CHANNELS 3 Zrotation Yrotation Xrotation
				JOINT rtoe
				{
					OFFSET -0.034840 -0.062106 0.130323
					CHANNELS 3 Zrotation Yrotation Xrotation
					End Site
					{
						OFFSET 0.000000 0.000000 0.000000
					}
				}
			}
		}
	}
	JOINT lowerback
	{
		OFFSET 0.004439 0.124404 -0.038385
		CHANNELS 3 Zrotation Yrotation Xrotation
		JOINT upperback
		{
			OFFSET 0.004488 0.137956 0.026820
			CHANNELS 3 Zrotation Yrotation Xrotation
			JOINT chest
			{
				OFFSET -0.002265 0.056032 0.002855
				CHANNELS 3 Zrotation Yrotation Xrotation
				JOINT lowerneck
				{
					OFFSET -0.013390 0.211636 -0.033468
					CHANNELS 3 Zrotation Yrotation Xrotation
					JOINT upperneck
					{
						OFFSET 0.010113 0.088937 0.050410
						CHANNELS 3 Zrotation Yrotation Xrotation
						End Site
						{
							OFFSET 0.000000 0.000000 0.000000
						}
					}
				}
				JOINT lclavicle
				{
					OFFSET 0.071702 0.114000 -0.018898
					CHANNELS 3 Zrotation Yrotation Xrotation
					JOINT lshoulder
					{
						OFFSET 0.122921 0.045205 -0.019046
						CHANNELS 3 Zrotation Yrotation Xrotation
						JOINT lelbow
						{
							OFFSET 0.255332 -0.015649 -0.022946
							CHANNELS 3 Zrotation Yrotation Xrotation
							JOINT lwrist
							{
								OFFSET 0.265709 0.012698 -0.007375
								CHANNELS 3 Zrotation Yrotation Xrotation
								End Site
								{
									OFFSET 0.000000 0.000000 0.000000
								}
							}
						}
					}
				}
				JOINT rclavicle
				{
					OFFSET -0.082954 0.112472 -0.023707
					CHANNELS 3 Zrotation Yrotation Xrotation
					JOINT rshoulder
					{
						OFFSET -0.113228 0.046853 -0.008472
						CHANNELS 3 Zrotation Yrotation Xrotation
						JOINT relbow
						{
							OFFSET -0.260127 -0.014369 -0.031269
							CHANNELS 3 Zrotation Yrotation Xrotation
							JOINT rwrist
							{
								OFFSET -0.269108 0.006794 -0.006027
								CHANNELS 3 Zrotation Yrotation Xrotation
								End Site
								{
									OFFSET 0.000000 0.000000 0.000000
								}
							}
						}
					}
				}
			}
		}
	}
}
MOTION
Frames: 6
Frame Time: 0.033333
0.370111 0.163570 0.988837 86.078231 0.282644 90.020033 6.852834 5.333490 5.587141 -3.794158 -1.082437 -4.741421 0.881822 8.301290 -4.174852 0.000000 -0.000000 0.000000 -6.843041 -3.934148 0.895577 2.086589 -1.587251 1.887549 4.892398 -4.046261 -6.762103 0.000000 -0.000000 0.000000 -5.793441 3.508086 -9.782103 3.488156 -2.461215 16.977537 0.213236 1.670134 -5.513018 2.689643 5.845684 7.039934 4.629671 -1.719094 -6.881052 -28.633685 -5.735624 -0.152063 -54.327759 -6.143381 19.427009 -0.381772 -19.703629 9.775301 -9.920799 -12.793559 14.484323 30.558447 7.503162 7.256949 53.419198 2.423110 14.538169 -8.552258 26.098840 -2.148193 3.667158 11.868552 4.930374 
0.370227 0.163489 0.988832 86.105104 0.259690 90.050886 6.821519 5.301007 5.559956 -3.777379 -1.091073 -4.739284 0.872331 8.304869 -4.176586 0.000000 -0.000000 0.000000 -6.851398 -3.910262 0.898670 2.079859 -1.568120 1.853331 4.878987 -4.107069 -6.759805 0.000000 -0.000000 0.000000 -5.736022 3.555555 -9.573368 3.389287 -2.396596 16.697481 0.203218 1.618876 -5.525858 2.735694 5.786816 6.868666 4.619343 -1.758260 -6.589490 -28.513262 -5.664509 -0.178199 -54.384231 -6.107759 19.406392 -0.444782 -19.684483 9.945066 -9.917616 -12.790021 14.512599 30.541434 7.361450 7.248441 53.545849 2.428578 14.585484 -8.572069 26.055419 -2.084318 3.669821 11.862102 5.007370 
0.370288 0.163466 0.988809 86.113443 0.250485 90.064526 6.808344 5.287435 5.551305 -3.772348 -1.091970 -4.741572 0.866003 8.306277 -4.172407 0.000000 -0.000000 0.000000 -6.856637 -3.895612 0.899911 2.077524 -1.561266 1.838774 4.877543 -4.131301 -6.754814 0.000000 -0.000000 0.000000 -5.709852 3.572944 -9.488135 3.340208 -2.367406 16.586124 0.197973 1.600335 -5.532086 2.762309 5.767070 6.811343 4.620207 -1.777265 -6.474339 -28.448254 -5.642629 -0.185847 -54.426867 -6.093142 19.395480 -0.459674 -19.685225 10.007482 -9.927537 -12.788983 14.524264 30.519888 7.328674 7.270492 53.628152 2.425561 14.612911 -8.589847 26.036417 -2.077602 3.659093 11.865715 5.026833 
0.370322 0.163411 0.988763 86.126932 0.228932 90.081065 6.771476 5.237191 5.549375 -3.752286 -1.088515 -4.762625 0.835103 8.310304 -4.170746 0.000000 -0.000000 0.000000 -6.867561 -3.853230 0.926027 2.067635 -1.546106 1.773737 4.875465 -4.209208 -6.761881 0.000000 -0.000000 0.000000 -5.620332 3.624367 -9.225782 3.181040 -2.272292 16.273619 0.190468 1.543567 -5.555969 2.855448 5.700832 6.595859 4.603966 -1.844967 -6.114215 -28.256603 -5.626140 -0.162256 -54.570121 -6.039423 19.362749 -0.477017 -19.742164 10.226202 -9.933417 -12.756033 14.560400 30.434741 7.321357 7.415068 53.923773 2.424805 14.698139 -8.692980 26.008215 -2.166884 3.537412 11.863115 4.989327 
0.370319 0.163389 0.988766 86.130028 0.213905 90.098445 6.746328 5.200107 5.555817 -3.751034 -1.079040 -4.787745 0.823784 8.311541 -4.174017 0.000000 -0.000000 0.000000 -6.880822 -3.817081 0.936146 2.062041 -1.557638 1.739475 4.896874 -4.240648 -6.748309 0.000000 -0.000000 0.000000 -5.568612 3.637673 -9.095915 3.067263 -2.217843 16.084139 0.195545 1.515022 -5.562309 2.928385 5.676456 6.534536 4.619310 -1.881014 -5.964648 -28.054367 -5.620579 -0.106271 -54.779107 -5.981270 19.337110 -0.409220 -19.809248 10.338346 -10.017584 -12.739113 14.537758 30.261869 7.423150 7.573302 54.281873 2.379446 14.785061 -8.835037 26.040294 -2.292039 3.439932 11.905767 4.799886 
0.370347 0.163353 0.988715 86.130350 0.216672 90.101100 6.758286 5.191615 5.572615 -3.780583 -1.068483 -4.805523 0.883430 8.283835 -4.173519 0.000000 -0.000000 0.000000 -6.886106 -3.800592 0.939252 2.077737 -1.546041 1.741712 4.883195 -4.253566 -6.737378 0.000000 -0.000000 0.000000 -5.591940 3.641964 -8.969194 3.059692 -2.202403 15.839536 0.260059 1.431495 -5.465484 2.976325 5.737391 6.438941 4.578438 -1.851438 -5.769503 -27.983066 -5.459649 -0.112439 -54.949035 -6.043305 19.241641 -0.373024 -19.779922 10.616597 -10.156854 -12.711180 14.510777 30.321656 7.056638 7.389675 54.294332 2.481306 14.777958 -8.916793 26.216320 -1.901645 3.690425 11.783858 4.874743 
